<?xml version="1.0" standalone="no"?><!DOCTYPE svg PUBLIC "-//W3C//DTD SVG 1.1//EN" "http://www.w3.org/Graphics/SVG/1.1/DTD/svg11.dtd"><svg t="1557235186041" class="icon" style="" viewBox="0 0 1024 1024" version="1.1" xmlns="http://www.w3.org/2000/svg" p-id="10034" xmlns:xlink="http://www.w3.org/1999/xlink" width="200" height="200"><defs><style type="text/css"></style></defs><path d="M185.3 959.2c-29.5 0-57.2-11.5-78.1-32.3L96.4 916c-43.1-43.1-43.1-113.1 0-156.2l15.7-15.7c8.9-8.9 20.7-13.8 33.2-13.8 12.6 0 24.4 4.9 33.2 13.8L279 844.6c8.9 8.9 13.8 20.7 13.8 33.2 0 12.6-4.9 24.4-13.8 33.2l-15.7 15.7c-20.8 21-48.5 32.5-78 32.5z m-39.9-198.8c-4.5 0-8.8 1.8-12 5l-15.7 15.7c-31.4 31.4-31.4 82.4 0 113.7l10.8 10.8c15.2 15.2 35.4 23.6 56.9 23.6s41.7-8.4 56.9-23.6l15.7-15.7c3.2-3.2 5-7.5 5-12s-1.8-8.8-5-12L157.4 765.3c-3.2-3.2-7.5-4.9-12-4.9zM492.4 814.1c-7.5 0-15-1.8-21.8-5.4-11.8-6.2-20.4-17.2-23.7-30.1-3.9-15.5-9.1-30.7-15.6-45.2-3.1-7.1-0.4-15.3 6.3-19.1l428.6-242.9c5.3-3 12-2.5 16.8 1.3l59.3 47.3c11.4 9.1 18 23.2 17.6 37.8l-1.6 65c-0.3 12.7-8.2 23.8-20.2 28.3l-429.3 160c-5.3 2-10.8 3-16.4 3zM464 733.7c4.8 12.2 8.8 24.8 12 37.5 1.2 4.7 4.2 8.6 8.5 10.9 4.3 2.3 9.2 2.6 13.7 0.9l429.3-160.1c0.4-0.1 0.6-0.5 0.7-0.9l1.6-65c0.1-5.2-2.2-10.3-6.3-13.6l-51.4-41L464 733.7z" p-id="10035" fill="#ffffff"></path><path d="M445.1 742.3c-1.6 0-3.2-0.3-4.7-0.8-4-1.3-7.3-4.3-9-8.2-8.6-19.5-19.6-38-32.5-55-4.8-6.3-3.8-15.3 2.2-20.5L782 333.6c5-4.3 12.2-4.8 17.7-1.3l78.2 49.5c10.5 6.7 18.1 17.4 20.7 29.6l19.8 90.4c1.4 6.4-1.5 13-7.2 16.3l-2.4 1.3c-5.3 3-12 2.5-16.8-1.3l-19.8-15.8-419.7 238c-2.3 1.3-4.9 2-7.4 2z m-14-70.6c7.6 11.1 14.5 22.6 20.6 34.6l414.5-235c4.6-2.6 10.2-2.6 14.8 0L869.3 418c-1-4.4-3.7-8.3-7.5-10.7L793 363.6 431.1 671.7z" p-id="10036" fill="#ffffff"></path><path d="M410.9 684.2c-0.5 0-1.1 0-1.6-0.1-4.1-0.4-7.8-2.6-10.3-5.9-7.8-10.4-16.4-20.2-25.5-29.3-11-11-23-21.1-35.7-30.2-3.4-2.4-5.6-6.1-6.2-10.3s0.7-8.3 3.3-11.5l329-397.8c4.2-5.1 11.2-6.8 17.3-4.3l85.6 35.2c11.5 4.7 20.8 14 25.5 25.5l35.2 85.6c2.5 6.1 0.8 13.1-4.3 17.3l-8.2 6.8c-5 4.1-12.1 4.6-17.6 1.1l-4.4-2.8-372.4 317c-2.7 2.5-6.2 3.7-9.7 3.7zM368 604c9.3 7.4 18.2 15.4 26.6 23.7 6.4 6.4 12.5 13.1 18.3 20l369-314.1c2.5-2.1 5.4-3.3 8.5-3.5L764.5 267c-1.7-4.1-5.1-7.5-9.2-9.2l-75.4-31L368 604z" p-id="10037" fill="#ffffff"></path><path d="M346.4 621.6c-3 0-6.1-0.9-8.7-2.8-21.5-15.4-45.1-27.5-70-36.2-4.2-1.5-7.5-4.7-9.1-8.9-1.6-4.2-1.2-8.8 1-12.7l251.5-442.9c3.2-5.7 9.8-8.6 16.3-7.2l90.4 19.8c12.1 2.7 22.9 10.2 29.6 20.7l35.4 55.8c3.5 5.5 3 12.6-1.1 17.6L358 616.1c-3 3.6-7.3 5.5-11.6 5.5z m-52.1-61c17.1 7.1 33.6 15.8 49.2 25.9l308-372.4-29.5-46.7c-2.4-3.8-6.3-6.5-10.7-7.5l-79.6-17.4-237.4 418.1z" p-id="10038" fill="#ffffff"></path><path d="M272.6 583.4c-1.6 0-3.3-0.3-4.9-0.8-5.9-2.1-12-3.9-18-5.6-12.6-3.4-23.2-12-29.3-23.6-6-11.5-7-25.1-2.6-37.4L371.1 85.4c4.6-12.9 16.8-21.1 30.5-20.6l80.7 3.3c12.4 0.5 24.4 6.1 32.7 15.3l31.4 34.5c4.4 4.8 5.2 11.9 1.9 17.6s-9.8 8.5-16.2 7.2l-0.4-0.1-246 433.2c-2.7 4.8-7.8 7.6-13.1 7.6zM400.3 94.8c-0.4 0-0.8 0.3-0.9 0.7L246.1 526.1c-1.6 4.5-1.3 9.2 0.9 13.4 2.2 4.2 6 7.3 10.6 8.5 2.7 0.7 5.3 1.5 8 2.3l243.5-428.8-16.3-17.9c-3-3.3-7.3-5.3-11.8-5.5l-80.7-3.3c0.1 0 0 0 0 0z" p-id="10039" fill="#ffffff"></path><path d="M164.6 766.4c-2.1 0-4.3-0.5-6.3-1.4-7.5-3.5-10.8-12.4-7.3-19.9L239.2 556c3.5-7.5 12.4-10.8 19.9-7.3 7.5 3.5 10.8 12.4 7.3 19.9l-88.2 189.1c-2.5 5.5-7.9 8.7-13.6 8.7zM271 872.8c-5.6 0-11.1-3.2-13.6-8.7-3.5-7.5-0.3-16.4 7.3-19.9L453.8 756c7.5-3.5 16.4-0.3 19.9 7.3 3.5 7.5 0.3 16.4-7.3 19.9l-189.1 88.2c-2 0.9-4.2 1.4-6.3 1.4z" p-id="10040" fill="#ffffff"></path></svg>